<svg width="136" height="24" fill="none" xmlns="http://www.w3.org/2000/svg"><path fill-rule="evenodd" clip-rule="evenodd" d="M78.066 7.053c2.132 0 3.767 1.078 4.447 2.065V1.243a.388.388 0 01.235-.356.378.378 0 01.146-.03h3.47a.378.378 0 01.352.238.388.388 0 01.028.148v21.19a.386.386 0 01-.38.384h-3.355a.495.495 0 01-.496-.5v-1.228c-.678.988-2.315 2.068-4.447 2.068-4.107 0-7.257-3.68-7.257-8.057 0-4.379 3.15-8.047 7.257-8.047zM75.07 15.1c0 2.405 1.575 4.193 3.892 4.193 2.319 0 3.891-1.788 3.891-4.193 0-2.406-1.574-4.194-3.891-4.194S75.07 12.694 75.07 15.1zm-10.232 1.48v-5.104c0-.102.04-.2.112-.272a.38.38 0 01.269-.113h2.972a.38.38 0 00.38-.383V7.775a.386.386 0 00-.38-.384h-2.972a.38.38 0 01-.38-.384v-3.52a.387.387 0 00-.382-.383h-3.47a.378.378 0 00-.352.238.388.388 0 00-.028.147c0 3.674-.095 3.888-2.625 3.9a.494.494 0 00-.349.146.503.503 0 00-.146.351v2.707a.5.5 0 00.306.46.49.49 0 00.189.037h2.244a.38.38 0 01.38.385v5.936c0 3.771 2.626 5.582 5.9 5.582a9.386 9.386 0 002.398-.257.38.38 0 00.288-.372v-2.927a.386.386 0 00-.304-.374.376.376 0 00-.172.004 5.345 5.345 0 01-1.253.132c-1.822 0-2.625-.739-2.625-2.62zm-41.12-1.48c0-4.564 3.43-8.047 8.125-8.047 4.048 0 7.597 2.59 7.604 7.594 0 .296 0 .634-.032 1.088a.389.389 0 01-.381.362h-11.2c.247 2.066 2.067 3.206 4.108 3.206 1.733 0 3.037-.734 3.773-1.651a.375.375 0 01.51-.063l2.539 1.885a.383.383 0 01.145.403.385.385 0 01-.064.136c-1.453 1.892-3.862 3.144-6.94 3.144-4.603 0-8.186-3.186-8.186-8.057zm8.004-4.559c-1.58 0-3.339.797-3.74 2.683h7.23c-.37-1.826-1.91-2.683-3.49-2.683zm19.793-3.149h4.08a.378.378 0 01.338.203.387.387 0 01-.02.395l-4.704 7.043a.385.385 0 000 .439l4.803 6.728a.386.386 0 01-.31.609h-4.08a.378.378 0 01-.309-.162l-3.111-4.402-3.11 4.402a.382.382 0 01-.309.162h-4.112a.378.378 0 01-.34-.21.387.387 0 01.03-.399l4.81-6.728a.39.39 0 000-.44L40.465 7.99a.386.386 0 01.12-.543.378.378 0 01.196-.055h4.046a.377.377 0 01.317.171l3.027 4.547L51.2 7.563a.381.381 0 01.316-.171zm81.554-.185c-1.729 0-3.304 1.14-3.83 2.652V7.776a.382.382 0 00-.381-.384h-3.468a.38.38 0 00-.382.384v14.647a.384.384 0 00.382.384h3.468a.382.382 0 00.381-.384v-6.986c0-2.528 1.33-4.1 3.337-4.1.486 0 .969.065 1.437.193a.375.375 0 00.438-.2.396.396 0 00.04-.168V7.689a.384.384 0 00-.308-.377 5.103 5.103 0 00-1.114-.105zM88.846 15.1c0-4.502 3.643-8.047 8.122-8.047 4.478 0 8.123 3.536 8.123 8.047 0 4.51-3.643 8.057-8.123 8.057-4.48 0-8.123-3.556-8.123-8.057zm4.261 0c0 2.374 1.638 4.1 3.861 4.1 2.224 0 3.829-1.726 3.829-4.1 0-2.375-1.605-4.101-3.829-4.101s-3.86 1.726-3.86 4.1zm21.679-8.047c-4.478 0-8.123 3.545-8.123 8.047 0 4.501 3.645 8.057 8.123 8.057s8.123-3.547 8.123-8.057-3.645-8.047-8.123-8.047zm0 12.147c-2.224 0-3.861-1.726-3.861-4.1 0-2.375 1.637-4.101 3.861-4.101s3.83 1.726 3.83 4.1c0 2.375-1.606 4.101-3.83 4.101zM7.193 10.198c1.36-2.016 3.786-3.332 6.63-3.332 4.4 0 7.796 3.15 7.796 7.157v8.4a.385.385 0 01-.38.384h-3.5a.38.38 0 01-.38-.384v-7.815c0-1.737-1.326-3.707-3.536-3.707-2.316 0-3.536 1.97-3.536 3.707v7.813a.387.387 0 01-.383.384H6.406a.377.377 0 01-.352-.235.385.385 0 01-.029-.147V14.86a.505.505 0 00-.376-.482c-3.077-.843-4.21-3.197-4.289-6.567a.387.387 0 01.235-.361.378.378 0 01.148-.03h2.76v.02h.835a.384.384 0 01.381.37c.04 1.378.314 2.118.964 2.512a.378.378 0 00.51-.125z" fill="#8ED500"/></svg>