<?xml version="1.0" encoding="utf-8"?>
<!-- Generator: Adobe Illustrator 19.2.1, SVG Export Plug-In . SVG Version: 6.00 Build 0)  -->
<svg version="1.1" id="layer" xmlns="http://www.w3.org/2000/svg" xmlns:xlink="http://www.w3.org/1999/xlink" x="0px" y="0px"
	 viewBox="0 0 652 652" style="enable-background:new 0 0 652 652;" xml:space="preserve">
<style type="text/css">
	.st0{fill:#8ED500;}
</style>
<path class="st0" d="M372.6,304c9.6,0,17,4.9,20,9.3v-35.5c0-0.7,0.4-1.3,1.1-1.6c0.2-0.1,0.4-0.1,0.7-0.1H410
	c0.7,0,1.3,0.4,1.6,1.1c0.1,0.2,0.1,0.4,0.1,0.7v95.5c0,0.9-0.8,1.7-1.7,1.7h-15.1c-1.2,0-2.3-1-2.3-2.3v-5.5
	c-3.1,4.4-10.4,9.3-20,9.3c-18.5,0-32.7-16.6-32.7-36.3C339.9,320.6,354.1,304,372.6,304L372.6,304z M359.1,340.3
	c0,10.8,7.1,18.9,17.6,18.9c10.4,0,17.5-8.1,17.5-18.9c0-10.8-7.1-18.9-17.5-18.9C366.2,321.4,359.1,329.5,359.1,340.3L359.1,340.3z
	 M313,347v-23c0-0.5,0.2-0.9,0.5-1.2c0.3-0.3,0.8-0.5,1.2-0.5h13.4c0.9,0,1.7-0.8,1.7-1.7v-13.2c0-0.9-0.8-1.7-1.7-1.7h-13.4
	c-1,0-1.7-0.8-1.7-1.7V288c0-0.9-0.8-1.7-1.7-1.7h-15.7c-0.7,0-1.3,0.4-1.6,1.1c-0.1,0.2-0.1,0.5-0.1,0.7c0,16.6-0.4,17.5-11.8,17.6
	c-0.6,0-1.2,0.2-1.6,0.7c-0.4,0.4-0.6,1-0.7,1.6V320c0,0.9,0.6,1.7,1.4,2.1c0.3,0.1,0.6,0.2,0.8,0.2h10.1c1,0,1.7,0.8,1.7,1.7v26.7
	c0,17,11.8,25.2,26.6,25.2c3.6,0.1,7.3-0.3,10.8-1.2c0.8-0.2,1.3-0.9,1.3-1.7v-13.2c0-0.8-0.6-1.5-1.4-1.7c-0.3-0.1-0.5,0-0.8,0
	c-1.9,0.4-3.7,0.6-5.6,0.6C316.6,358.8,313,355.4,313,347L313,347z M127.7,340.3c0-20.6,15.4-36.3,36.6-36.3
	c18.2,0,34.2,11.7,34.3,34.2c0,1.3,0,2.8-0.1,4.9c-0.1,0.9-0.8,1.6-1.7,1.6h-50.5c1.1,9.3,9.3,14.5,18.5,14.5c7.8,0,13.7-3.3,17-7.4
	c0.6-0.7,1.6-0.8,2.3-0.3l11.5,8.5c0.6,0.4,0.8,1.1,0.6,1.8c0,0.2-0.1,0.4-0.3,0.6c-6.5,8.5-17.4,14.2-31.3,14.2
	C143.8,376.6,127.7,362.3,127.7,340.3L127.7,340.3z M163.8,319.7c-7.1,0-15.1,3.6-16.9,12.1h32.6
	C177.8,323.6,170.9,319.7,163.8,319.7L163.8,319.7z M253,305.6h18.4c0.6,0,1.2,0.4,1.5,0.9c0.3,0.6,0.3,1.2-0.1,1.8L251.6,340
	c-0.4,0.6-0.4,1.4,0,2l21.6,30.3c0.8,1.1,0,2.7-1.4,2.7h-18.4c-0.5,0-1.1-0.3-1.4-0.7l-14-19.9l-14,19.9c-0.3,0.4-0.8,0.7-1.4,0.7
	h-18.5c-0.7,0-1.2-0.4-1.5-1c-0.3-0.6-0.2-1.3,0.1-1.8l21.7-30.3c0.4-0.6,0.4-1.4,0-2l-21.2-31.7c-0.5-0.8-0.3-2,0.5-2.5
	c0.3-0.2,0.6-0.2,0.9-0.2h18.2c0.6,0,1.1,0.3,1.4,0.8l13.6,20.5l13.6-20.5C251.9,305.8,252.4,305.6,253,305.6L253,305.6z
	 M620.5,304.7c-7.8,0-14.9,5.1-17.3,11.9v-9.4c0-0.9-0.8-1.7-1.7-1.7h-15.6c-1,0-1.7,0.8-1.7,1.7v66c0,0.9,0.8,1.7,1.7,1.7h15.6
	c0.9,0,1.7-0.8,1.7-1.7v-31.5c0-11.4,6-18.5,15-18.5c2.2,0,4.4,0.3,6.5,0.9c0.8,0.2,1.6-0.2,2-0.9c0.1-0.2,0.2-0.5,0.2-0.8v-15.7
	c0-0.8-0.6-1.6-1.4-1.7C623.9,304.9,622.2,304.7,620.5,304.7L620.5,304.7z M421.2,340.3c0-20.3,16.4-36.3,36.6-36.3
	c20.2,0,36.6,15.9,36.6,36.3c0,20.3-16.4,36.3-36.6,36.3C437.6,376.6,421.2,360.6,421.2,340.3L421.2,340.3z M440.4,340.3
	c0,10.7,7.4,18.5,17.4,18.5c10,0,17.3-7.8,17.3-18.5c0-10.7-7.2-18.5-17.3-18.5C447.8,321.8,440.4,329.6,440.4,340.3L440.4,340.3z
	 M538.1,304c-20.2,0-36.6,16-36.6,36.3c0,20.3,16.4,36.3,36.6,36.3c20.2,0,36.6-16,36.6-36.3C574.7,320,558.3,304,538.1,304
	L538.1,304z M538.1,358.8c-10,0-17.4-7.8-17.4-18.5c0-10.7,7.4-18.5,17.4-18.5c10,0,17.3,7.8,17.3,18.5
	C555.4,351,548.1,358.8,538.1,358.8L538.1,358.8z M53.2,318.2c6.1-9.1,17.1-15,29.9-15c19.8,0,35.1,14.2,35.1,32.3v37.9
	c0,0.9-0.8,1.7-1.7,1.7h-15.8c-1,0-1.7-0.8-1.7-1.7v-35.2c0-7.8-6-16.7-15.9-16.7c-10.4,0-15.9,8.9-15.9,16.7v35.2
	c0,1-0.8,1.7-1.7,1.7H49.7c-0.7,0-1.3-0.4-1.6-1.1c-0.1-0.2-0.1-0.4-0.1-0.7v-34.1c0-1-0.7-1.9-1.7-2.2c-13.9-3.8-19-14.4-19.3-29.6
	c0-0.7,0.4-1.3,1.1-1.6c0.2-0.1,0.4-0.1,0.7-0.1h12.4v0.1h3.8c0.9,0,1.7,0.7,1.7,1.7c0.2,6.2,1.4,9.6,4.3,11.3
	C51.7,319.2,52.7,319,53.2,318.2L53.2,318.2z M53.2,318.2"/>
</svg>
